# AST/ASF file generated using VICON BodyLanguage
# -----------------------------------------------
:version 1.10
:name VICON
:units
  mass 1.0
  length 0.45
  angle deg
:documentation
   .ast/.asf automatically generated from VICON data using
   VICON BodyBuilder and BodyLanguage model FoxedUp or BRILLIANT.MOD
:root
   order TX TY TZ RX RY RZ
   axis XYZ
   position 0 0 0  
   orientation 0 0 0 
:bonedata
  begin
     id 1 
     name lhipjoint
     direction 0.662698 -0.695252 0.27831 
     length 2.53073 
     axis 0 0 0  XYZ
  end
  begin
     id 2 
     name lfemur
     direction 0.34202 -0.939693 0  
     length 7.16147  
     axis 0 0 20  XYZ
    dof rx ry rz
    limits (-160.0 20.0)
           (-70.0 70.0)
           (-60.0 70.0)
  end
  begin
     id 3 
     name ltibia
     direction 0.34202 -0.939693 0   
     length 7.63967   
     axis 0 0 20   XYZ
    dof rx
    limits (-10.0 170.0)
  end
  begin
     id 4 
     name lfoot
     direction 0.0938457 -0.257721 0.961651   
     length 1.89793   
     axis -90 7.62852e-016 20   XYZ
    dof rx rz
    limits (-45.0 90.0)
           (-70.0 20.0)
  end
  begin
     id 5 
     name ltoes
     direction -0.00116841 -0.0030592 0.999995   
     length 0.955649   
     axis -90 7.62852e-016 20   XYZ
    dof rx
    limits (-90.0 20.0)
  end
  begin
     id 6 
     name rhipjoint
     direction -0.649445 -0.705948 0.282592   
     length 2.49238  
     axis 0 0 0  XYZ 
  end
  begin
     id 7 
     name rfemur
     direction -0.34202 -0.939693 0   
     length 6.90728   
     axis 0 0 -20   XYZ
    dof rx ry rz
    limits (-160.0 20.0)
           (-70.0 70.0)
           (-70.0 60.0)
  end
  begin
     id 8 
     name rtibia
     direction -0.34202 -0.939693 0   
     length 7.72868   
     axis 0 0 -20   XYZ
    dof rx
    limits (-10.0 170.0)
 end
 begin
     id 9 
     name rfoot
     direction -0.0920068 -0.252865 0.963117   
     length 1.97476  
     axis -90 -7.62852e-016 -20   XYZ
    dof rx rz
    limits (-45.0 90.0)
           (-20.0 70.0)
  end
  begin
     id 10 
     name rtoes
     direction 0.000391322 0.00230649 0.999997   
     length 0.992641   
     axis -90 -7.62852e-016 -20   XYZ
    dof rx
    limits (-90.0 20.0)
  end
  begin
     id 11 
     name lowerback
     direction -0.00875327 0.998321 -0.0572635   
     length 2.20024   
     axis 0 0 0   XYZ
    dof rx ry rz
    limits (-20.0 45.0)
           (-30.0 30.0)
           (-30.0 30.0)
  end
  begin
     id 12 
     name upperback
     direction 0.00753931 0.999972 -0.000360425   
     length 2.20538   
     axis 0 0 0   XYZ
    dof rx ry rz
    limits (-20.0 45.0)
           (-30.0 30.0)
           (-30.0 30.0)
  end
  begin
     id 13 
     name thorax
     direction 0.0117767 0.999601 0.0256663   
     length 2.21508   
     axis 0 0 0   XYZ
    dof rx ry rz
    limits (-20.0 45.0)
           (-30.0 30.0)
           (-30.0 30.0)
  end
  begin
     id 14 
     name lowerneck
     direction 0.060228 0.994909 0.0807986   
     length 1.7607   
     axis 0 0 0   XYZ
    dof rx ry rz
    limits (-20.0 45.0)
           (-30.0 30.0)
           (-30.0 30.0)
  end
  begin
     id 15 
     name upperneck
     direction -0.0563647 0.959594 -0.275685   
     length 1.75612   
     axis 0 0 0   XYZ
    dof rx ry rz
    limits (-20.0 45.0)
           (-30.0 30.0)
           (-30.0 30.0)
  end
  begin
     id 16
     name head
     direction -0.0161544 0.99458 -0.102714  
     length 1.79288  
     axis 0 0 0   XYZ
    dof rx ry rz
    limits (-20.0 45.0)
           (-30.0 30.0)
           (-30.0 30.0)
  end
  begin
     id 17 
     name lclavicle
     direction 0.93913 0.332189 -0.087669  
     length 3.52087  
     axis 0 0 0   XYZ
    dof ry rz
    limits (-20.0 10.0)
           (0.0 20.0)
  end
  begin
     id 18 
     name lhumerus
     direction 1 -4.48974e-011 -2.70836e-027   
     length 5.35289   
     axis -180 -30 -90   XYZ
    dof rx ry rz
    limits (-60.0 90.0)
           (-90.0 90.0)
           (-90.0 90.0)
  end
  begin
     id 19
     name lradius
     direction 1 -4.48961e-011 -9.76021e-027   
     length 3.27727   
     axis -180 -30 -90   XYZ
    dof rx
    limits (-10.0 170.0)
  end
  begin
     id 20
     name lwrist
     direction 1 -4.49103e-011 -2.23668e-026   
     length 1.63864   
     axis 1.44924e-014 90 90   XYZ
    dof ry
    limits (-180.0 0.0)
 end
  begin
     id 21 
     name lhand
     direction 1 3.0697e-005 0.000161777   
     length 0.54443   
     axis 2.85318e-014 90 90   XYZ
    dof rx rz
    limits (-90.0 90.0)
           (-45.0 45.0)
  end
  begin
     id 22 
     name lfingers
     direction 1 -4.49027e-011 -8.9447e-026   
     length 0.438912   
     axis 5.70628e-014 90 90   XYZ
    dof rx
    limits (0.0 90.0)
  end
  begin
     id 23
     name lthumb
     direction 0.707058 2.6516e-005 0.707156   
     length 0.630274   
     axis -90 45 -3.53137e-014   XYZ
    dof rx rz
    limits (-45.0 45.0)
           (-45.0 45.0)
  end
  begin
     id 24 
     name rclavicle
     direction -0.95274 0.284984 -0.105215   
     length 3.43401  
     axis 0 0 0   XYZ 
    dof ry rz
    limits (-10.0 20.0)
           (-20.0 0.0)
  end
  begin
     id 25 
     name rhumerus
     direction -0.999999 -0.000575019 -0.00106829  
     length 5.52077   
     axis -180 30 90   XYZ
    dof rx ry rz
    limits (-90.0 60.0)
           (-90.0 90.0)
           (-90.0 90.0)
  end
  begin
     id 26 
     name rradius
     direction -1 -4.4879e-011 -6.35415e-027   
     length 3.32364   
     axis -180 30 90   XYZ
    dof rx
    limits (-10.0 170.0)
  end
  begin
     id 27 
     name rwrist
     direction -1 -4.49048e-011 -9.98542e-027   
     length 1.66182   
     axis 6.32482e-015 -90 -90   XYZ
    dof ry
    limits (-180.0 0.0)
  end
  begin
     id 28
     name rhand
     direction -1 -4.48978e-011 -1.99771e-026   
     length 0.732235   
     axis 1.27479e-014 -90 -90   XYZ
    dof rx rz
    limits (-90.0 90.0)
           (-45.0 45.0)
  end
  begin
     id 29
     name rfingers
     direction -1 -4.49144e-011 -3.99245e-026   
     length 0.590347   
     axis 2.5496e-014 -90 -90   XYZ
    dof rx
    limits (0.0 90.0)
  end
  begin
     id 30
     name rthumb
     direction -0.707107 -6.35121e-011 0.707107   
     length 0.847624   
     axis -90 -45 -2.82974e-014   XYZ
    dof rx rz
    limits (-45.0 45.0)
           (-45.0 45.0)
  end
:hierarchy
  begin
    root lhipjoint rhipjoint lowerback
    lhipjoint lfemur
    lfemur ltibia
    ltibia lfoot
    lfoot ltoes
    rhipjoint rfemur
    rfemur rtibia
    rtibia rfoot
    rfoot rtoes
    lowerback upperback
    upperback thorax
    thorax lowerneck lclavicle rclavicle
    lowerneck upperneck
    upperneck head
    lclavicle lhumerus
    lhumerus lradius
    lradius lwrist
    lwrist lhand lthumb
    lhand lfingers
    rclavicle rhumerus
    rhumerus rradius
    rradius rwrist
    rwrist rhand rthumb
    rhand rfingers
  end

#!OML:ASF G:\Work\Work\Patient Classification 1\Elijah\terrain1\Elijah.ASF
:FULLY-SPECIFIED
:DEGREES
183
root 15.3798 19.3936 5.13212 2.7332 13.0649 3.12069
lowerback 6.2288 0.52464 -2.61584
upperback 1.85461 0.518817 -1.22231
thorax -1.59256 0.264921 0.172166
lowerneck -19.8222 7.982 10.2701
upperneck 14.1638 10.8637 -14.3669
head 9.11717 4.28387 -5.05929
rclavicle 3.28243e-014 1.96797e-014
rhumerus -51.988 -9.73242 -73.0411
rradius 25.277
rwrist 3.99096
rhand -9.69181 20.21
rfingers 7.12502
rthumb 16.2804 -9.12651
lclavicle 3.28243e-014 1.96797e-014
lhumerus -40.6342 2.73259 80.3314
lradius 67.8926
lwrist 14.7321
lhand -20.4109 28.7776
lfingers 7.12502
lthumb 5.94316 58.6742
rfemur -30.9494 -5.43369 20.4195
rtibia 42.2979
rfoot 11.0184 -19.1554
rtoes -20.2344
lfemur -18.4524 -3.83996 -14.4399
ltibia 95.203
lfoot 5.95132 -28.3612
ltoes 12.7361
184
root 15.3644 19.3074 5.20901 3.05959 12.4974 2.87938
lowerback 6.53838 0.539286 -2.04527
upperback 1.9431 0.567574 -1.13171
thorax -1.67071 0.288699 -0.0605308
lowerneck -20.3205 8.24325 9.81031
upperneck 14.1426 11.2223 -13.9348
head 9.18718 4.44597 -4.76051
rclavicle 3.8881e-014 -4.82053e-015
rhumerus -50.9559 -9.42781 -73.6371
rradius 25.459
rwrist 4.65199
rhand -9.38636 20.0096
rfingers 7.12502
rthumb 16.5745 -9.30257
lclavicle 3.8881e-014 -4.82053e-015
lhumerus -39.8786 3.5896 80.4393
lradius 66.0181
lwrist 14.8291
lhand -21.3258 29.0661
lfingers 7.12502
lthumb 5.05976 58.9857
rfemur -32.4398 -4.70609 20.7249
rtibia 44.4556
rfoot 11.0184 -19.1554
rtoes -20.2344
lfemur -18.9863 -3.78805 -14.1594
ltibia 96.1355
lfoot 7.30081 -28.1714
ltoes 12.2723
185
root 15.3512 19.2141 5.27239 3.55504 12.1546 2.74714
lowerback 6.86464 0.507765 -1.55811
upperback 1.79387 0.546666 -1.09262
thorax -2.00172 0.279477 -0.295938
lowerneck -20.1 8.41913 9.45627
upperneck 13.9616 11.4842 -13.5648
head 9.07079 4.59902 -4.53111
rclavicle 1.3508e-014 -1.0461e-014
rhumerus -50.3447 -8.75114 -74.4578
rradius 25.9538
rwrist 4.78429
rhand -9.03189 19.8038
rfingers 7.12502
rthumb 16.9157 -9.47951
lclavicle 1.3508e-014 -1.0461e-014
lhumerus -39.6812 3.98398 80.583
lradius 64.4465
lwrist 15.115
lhand -22.0161 28.9459
lfingers 7.12502
lthumb 4.39321 58.8803
rfemur -33.8844 -4.2429 20.9372
rtibia 46.4841
rfoot 11.0184 -19.1554
rtoes -20.2344
lfemur -19.7494 -3.91225 -14.0371
ltibia 97.1454
lfoot 8.4497 -27.869
ltoes 11.6309
186
root 15.339 19.1371 5.3473 4.02968 11.747 3.09494
lowerback 7.03022 0.521741 -1.70506
upperback 1.85071 0.551633 -1.10176
thorax -2.0365 0.282418 -0.224589
lowerneck -19.7894 8.61756 9.56981
upperneck 13.4572 11.7264 -13.7461
head 8.89594 4.72806 -4.57405
rclavicle -5.06901e-015 1.15544e-014
rhumerus -49.488 -7.80062 -75.4613
rradius 26.7823
rwrist 4.3469
rhand -8.78212 19.3672
rfingers 7.12502
rthumb 17.1562 -9.89539
lclavicle -5.06901e-015 1.15544e-014
lhumerus -39.1907 4.41654 80.8696
lradius 62.6847
lwrist 15.1837
lhand -22.5291 26.4365
lfingers 7.12502
lthumb 3.89789 56.3806
rfemur -35.1101 -3.86812 20.6351
rtibia 48.3512
rfoot 11.0184 -19.1554
rtoes -20.2344
lfemur -20.4036 -4.05255 -14.5815
ltibia 98.0554
lfoot 9.3104 -27.2235
ltoes 10.0368
187
root 15.3231 19.0904 5.43797 4.46147 11.2904 3.6423
lowerback 7.10692 0.516799 -2.27066
upperback 2.01182 0.507656 -1.04271
thorax -1.9177 0.26048 0.157513
lowerneck -19.2962 8.75986 9.98791
upperneck 12.5141 11.8752 -14.4689
head 8.5937 4.80029 -4.87008
rclavicle 7.62836e-015 1.00386e-014
rhumerus -48.4136 -6.86788 -76.2206
rradius 27.6617
rwrist 4.09512
rhand -8.63989 19.2137
rfingers 7.12502
rthumb 17.2931 -10.0369
lclavicle 7.62836e-015 1.00386e-014
lhumerus -38.6464 4.87717 81.2761
lradius 60.8739
lwrist 15.0276
lhand -23.0727 29.7427
lfingers 7.12502
lthumb 3.3729 59.6957
rfemur -36.1528 -3.45224 20.0956
rtibia 49.8902
rfoot 11.0184 -19.1554
rtoes -20.2344
lfemur -21.1749 -4.15152 -15.398
ltibia 98.8577
lfoot 9.86493 -26.3952
ltoes 9.70385
188
root 15.3114 19.0531 5.51949 4.87636 11.0442 4.01354
lowerback 7.24825 0.433714 -2.55888
upperback 2.07587 0.375167 -0.965299
thorax -1.92962 0.194694 0.409673
lowerneck -18.8739 8.78632 10.4677
upperneck 11.8924 11.8805 -15.194
head 8.4008 4.79832 -5.20158
rclavicle 2.34814e-014 -1.78906e-014
rhumerus -47.4376 -6.26505 -76.696
rradius 28.4849
rwrist 4.22429
rhand -8.00259 19.0065
rfingers 7.12502
rthumb 17.9063 -10.1891
lclavicle 2.34814e-014 -1.78906e-014
lhumerus -38.3281 4.91171 81.7027
lradius 59.1491
lwrist 14.7811
lhand -23.3145 28.0116
lfingers 7.12502
lthumb 3.13942 57.9682
rfemur -36.9808 -3.17213 19.7316
rtibia 50.9882
rfoot 11.0184 -19.1554
rtoes -20.2344
lfemur -21.6737 -4.42409 -15.9717
ltibia 99.5305
lfoot 11.0681 -25.4028
ltoes 8.62065
189
root 15.3044 19.0237 5.59347 5.16055 11.0097 4.12544
lowerback 7.42256 0.302583 -2.49018
upperback 2.18514 0.205499 -0.844214
thorax -1.90953 0.109124 0.510422
lowerneck -19.2987 8.91004 10.4527
upperneck 12.1845 12.0833 -15.307
head 8.6087 4.85459 -5.19811
rclavicle 1.16289e-014 6.55989e-015
rhumerus -46.4962 -5.96444 -77.0262
rradius 29.5022
rwrist 4.50347
rhand -7.31975 18.645
rfingers 7.12502
rthumb 18.5633 -10.4892
lclavicle 1.16289e-014 6.55989e-015
lhumerus -37.9195 4.46215 82.2306
lradius 57.2946
lwrist 14.6152
lhand -23.7494 30.5916
lfingers 7.12502
lthumb 2.71936 60.554
rfemur -37.2743 -3.03816 19.6594
rtibia 51.5888
rfoot 11.0184 -19.1554
rtoes -20.2344
lfemur -22.277 -4.71478 -16.2825
ltibia 100.285
lfoot 11.7144 -24.6378
ltoes 10.0334
190
root 15.2832 18.9944 5.68683 5.34122 10.8392 4.01708
lowerback 7.46829 0.249548 -2.52121
upperback 2.26134 0.13761 -0.637313
thorax -1.85492 0.0739478 0.747074
lowerneck -19.6751 9.09094 10.1294
upperneck 12.6195 12.3853 -14.9771
head 8.81413 4.97954 -4.97553
rclavicle -2.9768e-014 2.56432e-014
rhumerus -45.8238 -5.49373 -77.4977
rradius 30.7645
rwrist 4.67833
rhand -7.35091 18.779
rfingers 7.12502
rthumb 18.5333 -10.3581
lclavicle -2.9768e-014 2.56432e-014
lhumerus -37.4887 3.77742 82.7819
lradius 55.1988
lwrist 14.3153
lhand -23.6471 31.2195
lfingers 7.12502
lthumb 2.81817 61.1806
rfemur -37.0773 -2.49183 19.9033
rtibia 51.7415
rfoot 11.0184 -19.1554
rtoes -20.2344
lfemur -22.7932 -4.6411 -16.1235
ltibia 101.076
lfoot 12.5402 -24.0173
ltoes 3.71741
191
root 15.2782 18.983 5.77672 5.6675 10.8723 4.15561
lowerback 7.57837 0.0953574 -2.53558
upperback 2.09894 -0.0747686 -0.607241
thorax -2.07681 -0.0282946 0.805189
lowerneck -19.263 9.15945 10.3707
upperneck 12.8775 12.4696 -14.9125
head 8.8501 5.04829 -4.99063
rclavicle -1.20265e-014 -8.15017e-015
rhumerus -45.5717 -4.66005 -78.261
rradius 32.2705
rwrist 4.28477
rhand -7.60206 19.0072
rfingers 7.12502
rthumb 18.2917 -10.1527
lclavicle -1.20265e-014 -8.15017e-015
lhumerus -37.2972 3.03851 83.1728
lradius 52.8927
lwrist 13.7099
lhand -23.4212 29.9386
lfingers 7.12502
lthumb 3.03631 59.8967
rfemur -36.8625 -2.36108 19.8537
rtibia 51.6019
rfoot 11.0184 -19.1554
rtoes -20.2344
lfemur -23.359 -4.92298 -16.4473
ltibia 101.798
lfoot 13.5525 -22.7647
ltoes 3.30365
192
root 15.2655 18.9912 5.86162 5.98481 10.7393 4.09926
lowerback 7.51172 -0.0164457 -2.53368
upperback 2.05056 -0.218431 -0.455921
thorax -2.08441 -0.0995528 0.973197
lowerneck -19.0392 9.26157 10.376
upperneck 13.2162 12.6338 -14.7146
head 8.93103 5.14389 -4.90382
rclavicle -1.44616e-014 1.63003e-014
rhumerus -45.1116 -3.77843 -78.9509
rradius 33.9483
rwrist 3.53033
rhand -7.8975 19.3016
rfingers 7.12502
rthumb 18.0075 -9.88473
lclavicle -1.44616e-014 1.63003e-014
lhumerus -36.7746 2.45473 83.5906
lradius 50.7394
lwrist 12.1473
lhand -22.6137 31.2656
lfingers 7.12502
lthumb 3.81613 61.2112
rfemur -36.7187 -1.83265 19.9848
rtibia 51.3384
rfoot 11.0184 -19.1554
rtoes -20.2344
lfemur -24.3838 -4.77662 -16.4113
ltibia 102.601
lfoot 14.2129 -21.6037
ltoes 0.568879
193
root 15.2505 19.0062 5.94283 6.21704 10.5737 3.73815
lowerback 7.24393 -0.0707676 -2.24954
upperback 2.23166 -0.253089 -0.218544
thorax -1.7481 -0.122625 1.05998
lowerneck -19.3085 9.46313 9.41724
upperneck 13.5247 12.9764 -13.6764
head 8.97547 5.33021 -4.32725
rclavicle -2.67365e-014 -6.36111e-015
rhumerus -44.3437 -3.3231 -79.4219
rradius 35.7254
rwrist 2.78062
rhand -8.30631 19.6484
rfingers 7.12502
rthumb 17.6141 -9.57375
lclavicle -2.67365e-014 -6.36111e-015
lhumerus -35.7659 1.93345 83.9698
lradius 48.2145
lwrist 9.85027
lhand -21.1377 30.0566
lfingers 7.12502
lthumb 5.24135 59.9718
rfemur -36.4961 -1.08707 20.404
rtibia 51.0422
rfoot 11.0184 -19.1554
rtoes -20.2344
lfemur -25.9263 -4.42158 -16.0163
ltibia 103.577
lfoot 13.9448 -20.855
ltoes -10.0031
194
root 15.2426 19.0086 6.01424 6.491 10.4626 3.61713
lowerback 7.32551 -0.123928 -2.04052
upperback 2.23139 -0.308938 -0.132399
thorax -1.79256 -0.15021 1.03653
lowerneck -18.8603 9.31926 10.8836
upperneck 13.086 12.6678 -15.1652
head 8.93164 5.15667 -5.14064
rclavicle -1.02374e-014 -1.03368e-014
rhumerus -43.9127 -3.04328 -79.8834
rradius 37.6328
rwrist 1.88784
rhand -8.91604 19.8889
rfingers 7.12502
rthumb 17.0273 -9.38489
lclavicle -1.02374e-014 -1.03368e-014
lhumerus -35.3425 1.22717 84.2399
lradius 46.2946
lwrist 7.33463
lhand -19.277 27.5649
lfingers 7.12502
lthumb 7.03778 57.4279
rfemur -36.3764 -0.418245 20.518
rtibia 50.8122
rfoot 11.0184 -19.1554
rtoes -20.2344
lfemur -26.6234 -4.34944 -15.9037
ltibia 104.426
lfoot 15.2956 -19.7666
ltoes -1.63818
195
root 15.2353 19.0158 6.08472 6.75087 10.2433 3.63543
lowerback 7.95814 -0.169784 -1.98712
upperback 1.85733 -0.38554 -0.0995141
thorax -2.52749 -0.178764 1.05239
lowerneck -20.2684 9.75827 9.80699
upperneck 14.7353 13.4006 -13.841
head 9.65605 5.45072 -4.35285
rclavicle 3.18055e-014 -1.51076e-014
rhumerus -44.1479 -2.41645 -80.4561
rradius 39.7041
rwrist 0.494568
rhand -9.79738 20.2411
rfingers 7.12502
rthumb 16.1788 -9.10373
lclavicle 3.18055e-014 -1.51076e-014
lhumerus -35.7427 0.636273 84.4057
lradius 44.8851
lwrist 4.57427
lhand -17.544 24.6694
lfingers 7.12502
lthumb 8.7104 54.4697
rfemur -36.214 0.410595 20.4597
rtibia 50.5738
rfoot 11.0184 -19.1554
rtoes -20.2344
lfemur -27.5364 -4.07748 -15.9802
ltibia 105.341
lfoot 16.6699 -19.2052
ltoes -0.0783413
